# xmcd
#
# Track frame offsets: 
#        150
#        11584
#        23797
#        36830
#        53337
#        66022
#        84567
#        98930
#        109920
#        122967
#        135245
#        148385
#        161252
#        173020
#        184382
#        199380
#        209557
#
# Disc length: 2960 seconds
#
# Revision: 0
# Processed by: cddbd v1.4PL0 Copyright (c) Steve Scherf et al.
# Submitted via: ExactAudioCopy v0.95a1
#
DISCID=f00b8e11
DTITLE=Various Artist - Motown Classics
DYEAR=2003
DGENRE=Soul
TTITLE0=The Supremes - My World Is Empty Without You
TTITLE1=Four Tops - Baby I Need Your Loving
TTITLE2=Smokey Robinson and The Miracles - The Track Of My Tears
TTITLE3=Michael Jackson - Farewell My Summer Love
TTITLE4=The Isley Brothers - This Old Heart Of Mine
TTITLE5=The Supremes - Stoned Love
TTITLE6=The Spinners - It's A Shame
TTITLE7=Marvin Gaye and Tammi Terrell - Ain't No Mountain High Enough
TTITLE8=Jimmy Ruffin - What Becomes Of The Brokenhearted
TTITLE9=Four Tops - I Can't Help Myself
TTITLE10=Martha Reeves and The Vendellas - Forget Me Not
TTITLE11=Marvin Gaye - Too Busy Thinking About My Baby
TTITLE12=Four Tops - Standing In The Shadow Of Love
TTITLE13=The Elgins - Heaven Must Have Sent You
TTITLE14=Diana Ross - Remember Me
TTITLE15=Edwin Starr - Stop Her On The Sight (S.O.S)
TTITLE16=Jimmy Ruffin - It's Wonderful (To Be Loved By You)
EXTD=
EXTT0=
EXTT1=
EXTT2=
EXTT3=
EXTT4=
EXTT5=
EXTT6=
EXTT7=
EXTT8=
EXTT9=
EXTT10=
EXTT11=
EXTT12=
EXTT13=
EXTT14=
EXTT15=
EXTT16=
PLAYORDER=
